HIERARCHY
ROOT Hip
{
    OFFSET 0.0 0.0 0.0
    CHANNELS 6 Xposition Yposition Zposition Zrotation Xrotation Yrotation
    JOINT RightHip
    {
        OFFSET -14.46761417388916 0.0 0.0
        CHANNELS 3 Zrotation Xrotation Yrotation
        JOINT RightKnee
        {
            OFFSET 0.0 0.0 -45.8013916015625
            CHANNELS 3 Zrotation Xrotation Yrotation
            JOINT RightAnkle
            {
                OFFSET 0.0 0.0 -44.579383850097656
                CHANNELS 3 Zrotation Xrotation Yrotation
                End Site
                {
                    OFFSET 0.0 -17.83175277709961 0.0
                }
            }
        }
    }
    JOINT LeftHip
    {
        OFFSET 14.46761417388916 0.0 0.0
        CHANNELS 3 Zrotation Xrotation Yrotation
        JOINT LeftKnee
        {
            OFFSET 0.0 0.0 -45.8013916015625
            CHANNELS 3 Zrotation Xrotation Yrotation
            JOINT LeftAnkle
            {
                OFFSET 0.0 0.0 -44.579383850097656
                CHANNELS 3 Zrotation Xrotation Yrotation
                End Site
                {
                    OFFSET 0.0 -17.83175277709961 0.0
                }
            }
        }
    }
    JOINT Spine
    {
        OFFSET 0.0 0.0 24.38321304321289
        CHANNELS 3 Zrotation Xrotation Yrotation
        JOINT Thorax
        {
            OFFSET 0.0 0.0 24.166622161865234
            CHANNELS 3 Zrotation Xrotation Yrotation
            JOINT Neck
            {
                OFFSET 0.0 0.0 12.17811393737793
                CHANNELS 3 Zrotation Xrotation Yrotation
                End Site
                {
                    OFFSET 0.0 0.0 4.871245861053467
                }
            }
            JOINT LeftShoulder
            {
                OFFSET 15.442316055297852 0.0 0.0
                CHANNELS 3 Zrotation Xrotation Yrotation
                JOINT LeftElbow
                {
                    OFFSET 28.792964935302734 0.0 0.0
                    CHANNELS 3 Zrotation Xrotation Yrotation
                    JOINT LeftWrist
                    {
                        OFFSET 23.485233306884766 0.0 0.0
                        CHANNELS 3 Zrotation Xrotation Yrotation
                        End Site
                        {
                            OFFSET 9.394094467163086 0.0 0.0
                        }
                    }
                }
            }
            JOINT RightShoulder
            {
                OFFSET -15.442316055297852 0.0 0.0
                CHANNELS 3 Zrotation Xrotation Yrotation
                JOINT RightElbow
                {
                    OFFSET -28.792964935302734 0.0 0.0
                    CHANNELS 3 Zrotation Xrotation Yrotation
                    JOINT RightWrist
                    {
                        OFFSET -23.485233306884766 0.0 0.0
                        CHANNELS 3 Zrotation Xrotation Yrotation
                        End Site
                        {
                            OFFSET -9.394094467163086 0.0 0.0
                        }
                    }
                }
            }
        }
    }
}
MOTION
Frames: 4
Frame Time: 0.03333333333333333
0.0 91.01305 0.86328125 -94.16207488954092 -55.57852925102113 -90.9939228781335 -0.011729680043586259 1.986377925356264 4.324178547416395 2.0161646150840555 27.109979206399352 -14.650175246400977 1.590277340731758e-15 7.95138670365879e-16 -1.590277340731758e-15 0.03464332469441508 -4.93567166469547 -4.913937339134999 -6.242719954848938 49.326379359225136 13.216772521709498 3.1805546814635168e-15 2.2069531490250793e-32 7.951386703658792e-16 -0.18346201977071203 24.220048742588375 -4.013752412088595 -4.343676088143561 -1.4523251915184897e-06 1.4655504621809066e-06 6.386511972069469 -1.149187087751715 0.6399103358849026 11.552131375971856 -24.917391506521707 52.13671010258155 -116.24436376997605 -3.3681851902173318e-06 3.939743478345568e-06 3.975693351829396e-16 -6.3611093629270335e-15 2.2069531490250793e-32 -11.744555715486417 -20.280467519561537 -54.31063500048554 64.63063407078901 3.946842376077822e-06 3.2746555274256513e-06 0.0 -3.975693351829397e-16 0.0
3.0691223 90.99203 1.9312134 -92.2113130727147 -55.04125266339271 -89.45526099881708 0.007123498035504568 -0.4012059319446125 4.436936082079532 2.1074492168739885 29.7045588051756 -14.91479786552009 1.5902773407317584e-15 -8.827812596100317e-32 -6.3611093629270335e-15 0.1152346955348928 -8.54138682670796 -4.210178756993086 -6.969165299709143 54.21369026456761 12.153231547960315 3.1805546814635168e-15 7.951386703658791e-16 -3.1805546814635168e-15 -0.34790343850274186 24.47379162972562 -3.850955315613279 -4.515694971859421 1.3888671299161272e-06 -2.213591390269618e-06 5.836068071992305 -2.437360975328617 0.6304979999312879 8.937570964850206 -24.418478715392354 48.50709296394694 -114.30287202514673 -7.068113075713961e-07 -2.215013000158522e-06 7.454425034680117e-16 0.0 0.0 -11.8109827663319 -22.38928045686058 -52.54784572915671 67.12060094907186 4.591291656026669e-06 4.331810500712326e-07 1.5902773407317588e-15 0.0 0.0
5.9726257 90.85734 4.3306885 -89.55004047133461 -54.60122596842816 -87.66026974026127 0.07105184420926702 -2.8330335511274707 5.222061615292687 2.4280428934163774 32.31179588586416 -15.350539241978403 1.5902773407317584e-15 6.3611093629270335e-15 -8.827812596100317e-32 0.2961436657358042 -11.853011206062083 -2.6691172347088132 -6.764594601347873 58.5405717668754 9.478179975440801 1.4896933755919285e-31 -7.156248033292914e-15 2.3854160110976376e-15 -0.6082658873258074 23.403514655229696 -4.248265233140468 -3.6572541916953476 2.198971972045551e-06 -1.2050184326415038e-06 3.503597749136428 -3.7934024820723113 0.8665669062633979 6.9104785863969145 -23.448007816847667 44.28871993541736 -110.23762266646912 3.6160823906410293e-06 2.1433331341892276e-06 -7.951386703658792e-16 6.3611093629270335e-15 4.4139062980501586e-32 -11.011280833965182 -24.66982526339583 -48.17240578655588 69.6486389904469 -2.9151805985536586e-06 3.28012151406608e-06 0.0 0.0 3.1805546814635168e-15
9.091736 90.659485 6.984558 -86.56888919334762 -53.69678052807263 -86.50481185597269 0.3116881239288101 -5.885308809573454 7.896232283518007 3.32003422831473 34.11969758978102 -17.320334748568488 -3.180554681463516e-15 6.361109362927032e-15 1.5902773407317582e-15 0.7784266084626018 -14.435124674367485 -0.2557885895058188 -6.127718964359951 60.9993789025452 6.910605134787628 -1.7655625192200634e-31 6.361109362927032e-15 3.180554681463516e-15 -1.2074497330663 21.81678940845187 -3.0615376985760543 -2.8065769006549623 -2.404497164227278e-06 -5.621925010303825e-07 3.665618270527042 -4.477316646751787 0.6594869121535515 5.686730963557962 -24.444851761294768 41.82682888432083 -92.9884267833876 1.2711236667076025e-06 9.685940969741e-07 3.1805546814635168e-15 1.7655625192200634e-31 6.3611093629270335e-15 -6.440063344847481 -27.935268384349143 -43.93356490273433 66.9813784305672 -2.6347180284547615e-06 9.193437778625688e-08 1.5902773407317584e-15 -2.4848083448933725e-17 3.4483642953516864e-34
